<svg xmlns="http://www.w3.org/2000/svg" version="1.1" xmlns:xlink="http://www.w3.org/1999/xlink" xmlns:svgjs="http://svgjs.com/svgjs" width="200" height="200"><svg t="1727949160750" class="icon" viewBox="0 0 1024 1024" version="1.1" xmlns="http://www.w3.org/2000/svg" p-id="1480" data-darkreader-inline-fill="" width="200" height="200" xmlns:xlink="http://www.w3.org/1999/xlink"><path d="M146.285714 0h731.428572c80.457143 0 146.285714 65.828571 146.285714 146.285714v731.428572c0 80.457143-65.828571 146.285714-146.285714 146.285714H146.285714c-80.457143 0-146.285714-65.828571-146.285714-146.285714V146.285714C0 65.828571 65.828571 0 146.285714 0z" fill="#e6e6e6" p-id="1481" data-darkreader-inline-fill="" style="--darkreader-inline-fill: #26292b;" data-spm-anchor-id="a313x.search_index.0.i2.6af83a81VimXmL" class=""></path><path d="M241.371429 885.028571c-21.942857-29.257143-51.2-58.514286-80.457143-80.457142 51.2-51.2 80.457143-95.085714 95.085714-138.971429 14.628571-36.571429 21.942857-102.4 21.942857-197.485714V234.057143h402.285714v490.057143c0 29.257143 7.314286 36.571429 29.257143 36.571428h7.314286c14.628571 0 29.257143-7.314286 29.257143-36.571428 7.314286-36.571429 7.314286-80.457143 14.628571-124.342857 36.571429 14.628571 73.142857 21.942857 102.4 29.257142-7.314286 58.514286-7.314286 109.714286-14.628571 146.285715-7.314286 58.514286-43.885714 87.771429-117.028572 87.771428h-58.514285c-65.828571 0-102.4-36.571429-102.4-109.714285V336.457143H394.971429V512c7.314286 160.914286-43.885714 285.257143-153.6 373.028571z" fill="#2c2c2c" fill-opacity=".85" p-id="1482" data-darkreader-inline-fill="" style="--darkreader-inline-fill: #212425;" data-spm-anchor-id="a313x.search_index.0.i3.6af83a81VimXmL" class="selected"></path></svg><style>@media (prefers-color-scheme: light) { :root { filter: none; } }
</style></svg>